<mxfile host="app.diagrams.net" agent="Mozilla/5.0 (X11; Linux x86_64; rv:142.0) Gecko/20100101 Firefox/142.0" version="28.1.2">
  <diagram name="Page-1" id="m3Rx_OT7uhtPxrFTMrZM">
    <mxGraphModel dx="874" dy="945" grid="1" gridSize="10" guides="1" tooltips="1" connect="1" arrows="1" fold="1" page="1" pageScale="1" pageWidth="850" pageHeight="1100" math="0" shadow="0">
      <root>
        <mxCell id="0" />
        <mxCell id="1" parent="0" />
        <mxCell id="HVyj4Eqtp27WZKS2_-o6-1" value="GraphicsEngine" style="swimlane;fontStyle=0;childLayout=stackLayout;horizontal=1;startSize=60;fillColor=none;horizontalStack=0;resizeParent=1;resizeParentMax=0;resizeLast=0;collapsible=1;marginBottom=0;whiteSpace=wrap;html=1;" vertex="1" parent="1">
          <mxGeometry x="20" y="230" width="190" height="120" as="geometry" />
        </mxCell>
        <mxCell id="HVyj4Eqtp27WZKS2_-o6-2" value="+ load_textures()" style="text;strokeColor=none;fillColor=none;align=left;verticalAlign=top;spacingLeft=4;spacingRight=4;overflow=hidden;rotatable=0;points=[[0,0.5],[1,0.5]];portConstraint=eastwest;whiteSpace=wrap;html=1;" vertex="1" parent="HVyj4Eqtp27WZKS2_-o6-1">
          <mxGeometry y="60" width="190" height="30" as="geometry" />
        </mxCell>
        <mxCell id="HVyj4Eqtp27WZKS2_-o6-3" value="+ init_renderer()" style="text;strokeColor=none;fillColor=none;align=left;verticalAlign=top;spacingLeft=4;spacingRight=4;overflow=hidden;rotatable=0;points=[[0,0.5],[1,0.5]];portConstraint=eastwest;whiteSpace=wrap;html=1;" vertex="1" parent="HVyj4Eqtp27WZKS2_-o6-1">
          <mxGeometry y="90" width="190" height="30" as="geometry" />
        </mxCell>
        <mxCell id="HVyj4Eqtp27WZKS2_-o6-4" value="AudioEngine" style="swimlane;fontStyle=0;childLayout=stackLayout;horizontal=1;startSize=60;fillColor=none;horizontalStack=0;resizeParent=1;resizeParentMax=0;resizeLast=0;collapsible=1;marginBottom=0;whiteSpace=wrap;html=1;" vertex="1" parent="1">
          <mxGeometry x="20" y="380" width="190" height="120" as="geometry" />
        </mxCell>
        <mxCell id="HVyj4Eqtp27WZKS2_-o6-5" value="+ load_sounds()" style="text;strokeColor=none;fillColor=none;align=left;verticalAlign=top;spacingLeft=4;spacingRight=4;overflow=hidden;rotatable=0;points=[[0,0.5],[1,0.5]];portConstraint=eastwest;whiteSpace=wrap;html=1;" vertex="1" parent="HVyj4Eqtp27WZKS2_-o6-4">
          <mxGeometry y="60" width="190" height="30" as="geometry" />
        </mxCell>
        <mxCell id="HVyj4Eqtp27WZKS2_-o6-6" value="+ set_volume()" style="text;strokeColor=none;fillColor=none;align=left;verticalAlign=top;spacingLeft=4;spacingRight=4;overflow=hidden;rotatable=0;points=[[0,0.5],[1,0.5]];portConstraint=eastwest;whiteSpace=wrap;html=1;" vertex="1" parent="HVyj4Eqtp27WZKS2_-o6-4">
          <mxGeometry y="90" width="190" height="30" as="geometry" />
        </mxCell>
        <mxCell id="HVyj4Eqtp27WZKS2_-o6-7" value="InputManager" style="swimlane;fontStyle=0;childLayout=stackLayout;horizontal=1;startSize=60;fillColor=none;horizontalStack=0;resizeParent=1;resizeParentMax=0;resizeLast=0;collapsible=1;marginBottom=0;whiteSpace=wrap;html=1;" vertex="1" parent="1">
          <mxGeometry x="20" y="520" width="190" height="120" as="geometry" />
        </mxCell>
        <mxCell id="HVyj4Eqtp27WZKS2_-o6-8" value="+ init_keyboard()" style="text;strokeColor=none;fillColor=none;align=left;verticalAlign=top;spacingLeft=4;spacingRight=4;overflow=hidden;rotatable=0;points=[[0,0.5],[1,0.5]];portConstraint=eastwest;whiteSpace=wrap;html=1;" vertex="1" parent="HVyj4Eqtp27WZKS2_-o6-7">
          <mxGeometry y="60" width="190" height="30" as="geometry" />
        </mxCell>
        <mxCell id="HVyj4Eqtp27WZKS2_-o6-9" value="+ init_mouse()" style="text;strokeColor=none;fillColor=none;align=left;verticalAlign=top;spacingLeft=4;spacingRight=4;overflow=hidden;rotatable=0;points=[[0,0.5],[1,0.5]];portConstraint=eastwest;whiteSpace=wrap;html=1;" vertex="1" parent="HVyj4Eqtp27WZKS2_-o6-7">
          <mxGeometry y="90" width="190" height="30" as="geometry" />
        </mxCell>
        <mxCell id="HVyj4Eqtp27WZKS2_-o6-10" value="NetworkManager" style="swimlane;fontStyle=0;childLayout=stackLayout;horizontal=1;startSize=60;fillColor=none;horizontalStack=0;resizeParent=1;resizeParentMax=0;resizeLast=0;collapsible=1;marginBottom=0;whiteSpace=wrap;html=1;" vertex="1" parent="1">
          <mxGeometry x="20" y="660" width="190" height="90" as="geometry" />
        </mxCell>
        <mxCell id="HVyj4Eqtp27WZKS2_-o6-11" value="+ connect_server()" style="text;strokeColor=none;fillColor=none;align=left;verticalAlign=top;spacingLeft=4;spacingRight=4;overflow=hidden;rotatable=0;points=[[0,0.5],[1,0.5]];portConstraint=eastwest;whiteSpace=wrap;html=1;" vertex="1" parent="HVyj4Eqtp27WZKS2_-o6-10">
          <mxGeometry y="60" width="190" height="30" as="geometry" />
        </mxCell>
        <mxCell id="HVyj4Eqtp27WZKS2_-o6-13" value="SaveSystem" style="swimlane;fontStyle=0;childLayout=stackLayout;horizontal=1;startSize=60;fillColor=none;horizontalStack=0;resizeParent=1;resizeParentMax=0;resizeLast=0;collapsible=1;marginBottom=0;whiteSpace=wrap;html=1;" vertex="1" parent="1">
          <mxGeometry x="20" y="760" width="190" height="90" as="geometry" />
        </mxCell>
        <mxCell id="HVyj4Eqtp27WZKS2_-o6-14" value="+ load_save_file()" style="text;strokeColor=none;fillColor=none;align=left;verticalAlign=top;spacingLeft=4;spacingRight=4;overflow=hidden;rotatable=0;points=[[0,0.5],[1,0.5]];portConstraint=eastwest;whiteSpace=wrap;html=1;" vertex="1" parent="HVyj4Eqtp27WZKS2_-o6-13">
          <mxGeometry y="60" width="190" height="30" as="geometry" />
        </mxCell>
        <mxCell id="HVyj4Eqtp27WZKS2_-o6-16" value="GameEngine" style="swimlane;fontStyle=0;childLayout=stackLayout;horizontal=1;startSize=60;fillColor=none;horizontalStack=0;resizeParent=1;resizeParentMax=0;resizeLast=0;collapsible=1;marginBottom=0;whiteSpace=wrap;html=1;" vertex="1" parent="1">
          <mxGeometry x="325" y="440" width="200" height="244" as="geometry" />
        </mxCell>
        <mxCell id="HVyj4Eqtp27WZKS2_-o6-17" value="- graphics: GraphicsEngine&lt;br&gt;- audio: AudioEngine&lt;br&gt;- input: InputManager&lt;br&gt;- network: NetworkManager&lt;br&gt;- save: SaveSystem" style="text;strokeColor=none;fillColor=none;align=left;verticalAlign=top;spacingLeft=4;spacingRight=4;overflow=hidden;rotatable=0;points=[[0,0.5],[1,0.5]];portConstraint=eastwest;whiteSpace=wrap;html=1;" vertex="1" parent="HVyj4Eqtp27WZKS2_-o6-16">
          <mxGeometry y="60" width="200" height="90" as="geometry" />
        </mxCell>
        <mxCell id="HVyj4Eqtp27WZKS2_-o6-18" value="" style="line;strokeWidth=1;fillColor=none;align=left;verticalAlign=middle;spacingTop=-1;spacingLeft=3;spacingRight=3;rotatable=0;labelPosition=right;points=[];portConstraint=eastwest;strokeColor=inherit;" vertex="1" parent="HVyj4Eqtp27WZKS2_-o6-16">
          <mxGeometry y="150" width="200" height="8" as="geometry" />
        </mxCell>
        <mxCell id="HVyj4Eqtp27WZKS2_-o6-19" value="+ __init__()" style="text;strokeColor=none;fillColor=none;align=left;verticalAlign=top;spacingLeft=4;spacingRight=4;overflow=hidden;rotatable=0;points=[[0,0.5],[1,0.5]];portConstraint=eastwest;whiteSpace=wrap;html=1;" vertex="1" parent="HVyj4Eqtp27WZKS2_-o6-16">
          <mxGeometry y="158" width="200" height="26" as="geometry" />
        </mxCell>
        <mxCell id="HVyj4Eqtp27WZKS2_-o6-20" value="&lt;div&gt;+ start_game()&lt;/div&gt;&lt;div&gt;&lt;br&gt;&lt;/div&gt;&lt;div&gt;&lt;div&gt;+ start_multiplayer()&lt;/div&gt;&lt;/div&gt;&lt;div&gt;&lt;br&gt;&lt;/div&gt;" style="text;strokeColor=none;fillColor=none;align=left;verticalAlign=top;spacingLeft=4;spacingRight=4;overflow=hidden;rotatable=0;points=[[0,0.5],[1,0.5]];portConstraint=eastwest;whiteSpace=wrap;html=1;" vertex="1" parent="HVyj4Eqtp27WZKS2_-o6-16">
          <mxGeometry y="184" width="200" height="60" as="geometry" />
        </mxCell>
        <mxCell id="HVyj4Eqtp27WZKS2_-o6-23" value="" style="endArrow=diamondThin;endFill=1;endSize=24;html=1;rounded=0;" edge="1" parent="1">
          <mxGeometry width="160" relative="1" as="geometry">
            <mxPoint x="210" y="289.76" as="sourcePoint" />
            <mxPoint x="320" y="510" as="targetPoint" />
          </mxGeometry>
        </mxCell>
        <mxCell id="HVyj4Eqtp27WZKS2_-o6-25" value="" style="endArrow=diamondThin;endFill=1;endSize=24;html=1;rounded=0;" edge="1" parent="1">
          <mxGeometry width="160" relative="1" as="geometry">
            <mxPoint x="210" y="439.76" as="sourcePoint" />
            <mxPoint x="320" y="520" as="targetPoint" />
          </mxGeometry>
        </mxCell>
        <mxCell id="HVyj4Eqtp27WZKS2_-o6-26" value="" style="endArrow=diamondThin;endFill=1;endSize=24;html=1;rounded=0;entryX=-0.008;entryY=0.571;entryDx=0;entryDy=0;entryPerimeter=0;" edge="1" parent="1" target="HVyj4Eqtp27WZKS2_-o6-17">
          <mxGeometry width="160" relative="1" as="geometry">
            <mxPoint x="210" y="580" as="sourcePoint" />
            <mxPoint x="320" y="800.24" as="targetPoint" />
          </mxGeometry>
        </mxCell>
        <mxCell id="HVyj4Eqtp27WZKS2_-o6-27" value="" style="endArrow=diamondThin;endFill=1;endSize=24;html=1;rounded=0;" edge="1" parent="1">
          <mxGeometry width="160" relative="1" as="geometry">
            <mxPoint x="210" y="710" as="sourcePoint" />
            <mxPoint x="320" y="580" as="targetPoint" />
          </mxGeometry>
        </mxCell>
        <mxCell id="HVyj4Eqtp27WZKS2_-o6-28" value="" style="endArrow=diamondThin;endFill=1;endSize=24;html=1;rounded=0;exitX=1.003;exitY=0.444;exitDx=0;exitDy=0;exitPerimeter=0;entryX=-0.006;entryY=0.333;entryDx=0;entryDy=0;entryPerimeter=0;" edge="1" parent="1" source="HVyj4Eqtp27WZKS2_-o6-13" target="HVyj4Eqtp27WZKS2_-o6-19">
          <mxGeometry width="160" relative="1" as="geometry">
            <mxPoint x="300" y="790" as="sourcePoint" />
            <mxPoint x="410" y="1010.24" as="targetPoint" />
          </mxGeometry>
        </mxCell>
      </root>
    </mxGraphModel>
  </diagram>
</mxfile>
